<?xml version="1.0" encoding="UTF-8" standalone="no"?>
<svg
   xmlns:dc="http://purl.org/dc/elements/1.1/"
   xmlns:cc="http://creativecommons.org/ns#"
   xmlns:rdf="http://www.w3.org/1999/02/22-rdf-syntax-ns#"
   xmlns:svg="http://www.w3.org/2000/svg"
   xmlns="http://www.w3.org/2000/svg"
   xmlns:sodipodi="http://sodipodi.sourceforge.net/DTD/sodipodi-0.dtd"
   xmlns:inkscape="http://www.inkscape.org/namespaces/inkscape"
   viewBox="0 0 256 256"
   fill="none"
   version="1.1"
   id="svg128"
   sodipodi:docname="Visual_Studio_Code_1.35_icon.svg"
   inkscape:version="1.0.1 (3bc2e813f5, 2020-09-07)">
  <metadata
     id="metadata132">
    <rdf:RDF>
      <cc:Work
         rdf:about="">
        <dc:format>image/svg+xml</dc:format>
        <dc:type
           rdf:resource="http://purl.org/dc/dcmitype/StillImage" />
        <dc:title></dc:title>
      </cc:Work>
    </rdf:RDF>
  </metadata>
  <sodipodi:namedview
     pagecolor="#ffffff"
     bordercolor="#666666"
     borderopacity="1"
     objecttolerance="10"
     gridtolerance="10"
     guidetolerance="10"
     inkscape:pageopacity="0"
     inkscape:pageshadow="2"
     inkscape:window-width="640"
     inkscape:window-height="480"
     id="namedview130"
     showgrid="false"
     inkscape:zoom="2"
     inkscape:cx="51.359553"
     inkscape:cy="126.6231"
     inkscape:current-layer="svg128"
     inkscape:pagecheckerboard="false" />
  <mask
     id="mask0"
     mask-type="alpha"
     maskUnits="userSpaceOnUse"
     x="0"
     y="0"
     width="256"
     height="256">
    <path
       fill-rule="evenodd"
       clip-rule="evenodd"
       d="M181.534 254.252C185.566 255.823 190.164 255.722 194.234 253.764L246.94 228.403C252.478 225.738 256 220.132 256 213.983V42.0181C256 35.8689 252.478 30.2638 246.94 27.5988L194.234 2.23681C188.893 -0.333132 182.642 0.296344 177.955 3.70418C177.285 4.191 176.647 4.73454 176.049 5.33354L75.149 97.3862L31.1992 64.0247C27.1079 60.9191 21.3853 61.1735 17.5855 64.63L3.48936 77.4525C-1.15853 81.6805 -1.16386 88.9926 3.47785 93.2274L41.5926 128L3.47785 162.773C-1.16386 167.008 -1.15853 174.32 3.48936 178.548L17.5855 191.37C21.3853 194.827 27.1079 195.081 31.1992 191.976L75.149 158.614L176.049 250.667C177.645 252.264 179.519 253.467 181.534 254.252ZM192.039 69.8853L115.479 128L192.039 186.115V69.8853Z"
       fill="white"
       id="path72" />
  </mask>
  <g
     id="g1294"
     inkscape:export-filename="C:\Users\Ed\Development\uniform-dark-theme-vscode\Images\logo.png"
     inkscape:export-xdpi="56.049999"
     inkscape:export-ydpi="56.049999">
    <circle
       style="fill:#1e1e1e;fill-opacity:1;stroke:#ffffff;stroke-width:2;stroke-miterlimit:4;stroke-dasharray:none;stroke-opacity:1"
       id="path1169"
       cx="128.00002"
       cy="128.00002"
       r="127.46169" />
    <path
       d="M 205.71263,62.403254 171.23702,45.803742 c -3.99025,-1.921386 -8.75959,-1.110902 -11.89166,2.020903 L 46.484211,150.72775 c -3.03568,2.76801 -3.03219,7.54715 0.0075,10.31059 l 9.218859,8.3805 c 2.485131,2.25951 6.227729,2.42552 8.903385,0.39609 L 200.52498,66.709586 c 4.55954,-3.459 11.10865,-0.206931 11.10865,5.516281 V 71.8256 c 0,-4.017373 -2.30134,-7.679578 -5.921,-9.422346 z"
       fill="#0065a9"
       id="path75"
       style="fill:#1e1e1e;fill-opacity:1;stroke:#ffffff;stroke-width:2;stroke-miterlimit:4;stroke-dasharray:none;stroke-opacity:1" />
    <g
       filter="url(#filter0_d)"
       id="g79"
       style="fill:#1e1e1e;fill-opacity:1;stroke:#ffffff;stroke-width:3.05996;stroke-miterlimit:4;stroke-dasharray:none;stroke-opacity:1"
       transform="matrix(0.65360335,0,0,0.65360335,44.311823,44.338769)">
      <path
         d="m 246.94,228.362 -52.747,25.397 c -6.105,2.939 -13.402,1.699 -18.194,-3.092 L 3.32371,93.2272 C -1.32082,88.9925 -1.31548,81.6802 3.33523,77.4523 L 17.4399,64.6298 c 3.8022,-3.4565 9.5283,-3.711 13.622,-0.6053 L 239.003,221.773 c 6.976,5.292 16.996,0.317 16.996,-8.44 v 0.613 c 0,6.146 -3.521,11.749 -9.059,14.416 z"
         fill="#007acc"
         id="path77"
         style="fill:#1e1e1e;fill-opacity:1;stroke:#ffffff;stroke-width:3.05996;stroke-miterlimit:4;stroke-dasharray:none;stroke-opacity:1" />
    </g>
    <path
       d="m 194.196,253.763 c -6.107,2.937 -13.404,1.696 -18.196,-3.096 5.904,5.904 16,1.722 16,-6.628 V 11.9606 c 0,-8.35003 -10.096,-12.531775 -16,-6.62739 4.792,-4.792044 12.089,-6.033817 18.196,-3.09673 l 52.738,25.36202 c 5.542,2.665 9.066,8.2701 9.066,14.4193 V 213.983 c 0,6.149 -3.524,11.754 -9.066,14.419 z"
       fill="#1f9cf0"
       id="path81"
       style="fill:#1e1e1e;fill-opacity:1;stroke:#ffffff;stroke-width:3.05996;stroke-miterlimit:4;stroke-dasharray:none;stroke-opacity:1;filter:url(#filter1_d)"
       transform="matrix(0.65360335,0,0,0.65360335,44.311823,44.338769)" />
  </g>
  <defs
     id="defs126">
    <filter
       id="filter0_d"
       x="-21.4896"
       y="40.5225"
       width="298.822"
       height="236.149"
       filterUnits="userSpaceOnUse"
       color-interpolation-filters="sRGB">
      <feFlood
         flood-opacity="0"
         result="BackgroundImageFix"
         id="feFlood91" />
      <feColorMatrix
         in="SourceAlpha"
         type="matrix"
         values="0 0 0 0 0 0 0 0 0 0 0 0 0 0 0 0 0 0 127 0"
         id="feColorMatrix93" />
      <feOffset
         id="feOffset95" />
      <feGaussianBlur
         stdDeviation="10.6667"
         id="feGaussianBlur97" />
      <feColorMatrix
         type="matrix"
         values="0 0 0 0 0 0 0 0 0 0 0 0 0 0 0 0 0 0 0.25 0"
         id="feColorMatrix99" />
      <feBlend
         mode="overlay"
         in2="BackgroundImageFix"
         result="effect1_dropShadow"
         id="feBlend101" />
      <feBlend
         mode="normal"
         in="SourceGraphic"
         in2="effect1_dropShadow"
         result="shape"
         id="feBlend103" />
    </filter>
    <filter
       id="filter1_d"
       x="154.667"
       y="-20.6735"
       width="122.667"
       height="297.347"
       filterUnits="userSpaceOnUse"
       color-interpolation-filters="sRGB">
      <feFlood
         flood-opacity="0"
         result="BackgroundImageFix"
         id="feFlood106" />
      <feColorMatrix
         in="SourceAlpha"
         type="matrix"
         values="0 0 0 0 0 0 0 0 0 0 0 0 0 0 0 0 0 0 127 0"
         id="feColorMatrix108" />
      <feOffset
         id="feOffset110" />
      <feGaussianBlur
         stdDeviation="10.6667"
         id="feGaussianBlur112" />
      <feColorMatrix
         type="matrix"
         values="0 0 0 0 0 0 0 0 0 0 0 0 0 0 0 0 0 0 0.25 0"
         id="feColorMatrix114" />
      <feBlend
         mode="overlay"
         in2="BackgroundImageFix"
         result="effect1_dropShadow"
         id="feBlend116" />
      <feBlend
         mode="normal"
         in="SourceGraphic"
         in2="effect1_dropShadow"
         result="shape"
         id="feBlend118" />
    </filter>
    <linearGradient
       id="paint0_linear"
       x1="127.844"
       y1="0.659988"
       x2="127.844"
       y2="255.34"
       gradientUnits="userSpaceOnUse">
      <stop
         stop-color="white"
         id="stop121" />
      <stop
         offset="1"
         stop-color="white"
         stop-opacity="0"
         id="stop123" />
    </linearGradient>
    <filter
       id="filter1_d-0"
       x="-0.1887146"
       y="-0.059278968"
       width="1.3774292"
       height="1.1185579"
       filterUnits="userSpaceOnUse"
       color-interpolation-filters="sRGB">
      <feFlood
         flood-opacity="0"
         result="BackgroundImageFix"
         id="feFlood106-5" />
      <feColorMatrix
         in="SourceAlpha"
         type="matrix"
         values="0 0 0 0 0 0 0 0 0 0 0 0 0 0 0 0 0 0 127 0"
         id="feColorMatrix108-9" />
      <feOffset
         id="feOffset110-0" />
      <feGaussianBlur
         stdDeviation="6.2904866"
         id="feGaussianBlur112-5" />
      <feColorMatrix
         type="matrix"
         values="0 0 0 0 0 0 0 0 0 0 0 0 0 0 0 0 0 0 0.25 0"
         id="feColorMatrix114-6" />
      <feBlend
         mode="overlay"
         in2="BackgroundImageFix"
         result="effect1_dropShadow"
         id="feBlend116-4" />
      <feBlend
         mode="normal"
         in="SourceGraphic"
         in2="effect1_dropShadow"
         result="shape"
         id="feBlend118-3" />
    </filter>
  </defs>
</svg>
